# xmcd
#
# Track frame offsets: 
#        150
#        13988
#        27833
#        41438
#        54406
#        66819
#        79434
#        92327
#        104852
#        117842
#        131725
#        144633
#        158493
#        170651
#        184429
#        198327
#        209922
#        223842
#        238947
#
# Disc length: 3520 seconds
#
# Revision: 0
# Processed by: cddbd v1.5.2PL0 Copyright (c) Steve Scherf et al.
# Submitted via: ExactAudioCopyFreeDBPlugin 1.0
#
DISCID=250dbe13
DTITLE=Various Artist - The Rough Guide To: Gospel Blues Legends
DYEAR=2013
DGENRE=Gospel
TTITLE0=Reverend Gary Davis - The Angels Message To Me
TTITLE1=Bukka White - I Am In The Heavenly Way
TTITLE2=Skip James - Jesus Is A Mighty Good Leader
TTITLE3=Roosevelt Graves And Brother - Woke Up This Morning With My Mi
TTITLE3=nd On Jesus
TTITLE4=Blind Willie and Kate McTell - God Don't Like It
TTITLE5=Mississippi John Hurt - Blessed Be The Name
TTITLE6=Blind Joe Taggart - God Gonna Separate The Wheat From The Tare
TTITLE6=s
TTITLE7=Blind Lemon Jefferson - He Arose From The Dead
TTITLE8=Reverend Edward Clayborn (The Guitar Evangelist) - This Time A
TTITLE8=nother Year You May Be Gone
TTITLE9=Bull City Red - I Saw The Light
TTITLE10=Charley Patton and Bertha Lee - Oh Death
TTITLE11=Josh White - Jesus Gonna Make Up My Dying Bed
TTITLE12=Blind Mamie Forehand - Honey In The Rock
TTITLE13=Barbecue Bob - Jesus Blood Can Make Me Whole
TTITLE14=Blind Willie Davis - I Believe I'll Go Back Home
TTITLE15=Mother McCollum - You Can't Hide
TTITLE16=Jaybird Coleman - I'm Gonna Cross The River Of Jordan Some O'
TTITLE16=These Days
TTITLE17=Blind Gussie Nesbit - Pure Religion
TTITLE18=Washington Phillips - Denomination Blues
EXTD=
EXTT0=
EXTT1=
EXTT2=
EXTT3=
EXTT4=
EXTT5=
EXTT6=
EXTT7=
EXTT8=
EXTT9=
EXTT10=
EXTT11=
EXTT12=
EXTT13=
EXTT14=
EXTT15=
EXTT16=
EXTT17=
EXTT18=
PLAYORDER=
